<?xml version="1.0" standalone="no"?><!DOCTYPE svg PUBLIC "-//W3C//DTD SVG 1.1//EN" "http://www.w3.org/Graphics/SVG/1.1/DTD/svg11.dtd"><svg t="1494494435441" class="icon" style="" viewBox="0 0 1026 1024" version="1.1" xmlns="http://www.w3.org/2000/svg" p-id="2425" xmlns:xlink="http://www.w3.org/1999/xlink" width="25.048828125" height="25"><defs><style type="text/css"></style></defs><path d="M960.686363 371.549178 738.130568 339.822592c-24.799826-3.52836-46.240137-18.828834-57.331753-40.865733L581.267961 101.132328c-27.932166-55.527664-108.638279-55.527664-136.568399 0l-99.530854 197.824531c-11.091616 22.036899-32.530904 37.337373-57.335846 40.865733L65.279113 371.549178c-62.457494 8.897647-87.395466 84.190471-42.198078 127.422088L184.119755 652.961452c17.947767 17.146519 26.137287 41.880853 21.900799 66.124l-38.018895 217.442334c-10.66899 61.004399 54.625108 107.536178 110.488417 78.722946l199.059662-102.645798c22.184255-11.453866 48.685839-11.453866 70.868047 0l199.061708 102.645798c55.865355 28.813233 121.155361-17.71957 110.488417-78.722946l-38.020942-217.442334c-4.236488-24.243147 3.955078-48.977481 21.902846-66.124l161.04179-153.990187C1048.085922 455.739649 1023.14488 380.446825 960.686363 371.549178z" p-id="2426"></path></svg>